<?xml version="1.0" encoding="UTF-8"?><svg id="Lag_1" xmlns="http://www.w3.org/2000/svg" viewBox="0 0 661.88 217.46"><defs><style>.cls-1{fill:#fff;}</style></defs><path class="cls-1" d="m86.18,65.18c9.2-5.02,15.45-14.77,15.45-25.99,0-16.34-13.24-29.58-29.58-29.58s-29.58,13.24-29.58,29.58c0,11.22,6.25,20.98,15.45,25.99-11.2,3.54-25.71,13.14-29.87,39.2l-19.38,102.55h8.45l7.61-43.84h95.3l7.61,43.84h8.45l-19.38-102.55c-4.16-26.05-19.03-35.66-30.52-39.2Zm-36.54-25.99c0-12.38,10.03-22.41,22.41-22.41s22.41,10.03,22.41,22.41-10.03,22.41-22.41,22.41-22.41-10.03-22.41-22.41Zm-23.54,115.95l8.82-50.77s4.84-35.02,36.94-34.76c32.1-.25,37.96,34.76,37.96,34.76l8.82,50.77H26.1Z"/><path class="cls-1" d="m276.07,121.61c19.13-3.77,19.43-28.58,19.43-28.58.01-34.1-33.43-32.22-33.43-32.22h-71.98l.63,146.06h71.42s48.89,3.63,48.89-45.11c0-28.93-20.41-38.9-34.96-40.14Zm-78.16-54.63s50.32-.03,57.35-.04c7.04,0,33.4-1.11,33.4,26.21s-29.65,26.41-29.65,26.41l-61.11.1v-52.69Zm62.28,133.29h-62.24l.04-73.51h65.18s40.68-1.62,40.68,34.81c0,41-43.66,38.7-43.66,38.7Z"/><polygon class="cls-1" points="369.13 206.96 475.17 206.92 475.17 199.59 377.08 199.62 377.08 128.25 459.66 128.25 459.66 120.71 377.08 120.71 377.08 71.24 475.17 71.24 475.17 63.6 369.13 63.6 369.13 206.96"/><path class="cls-1" d="m651.47,188.59V63.83h-7.97v120.59s.78,13.95-7.88,14.19c-6.01.17-16.09-13.47-16.09-13.47l-85.24-121.3h-12.02v143.13s7.71,0,7.71,0l.02-134.51,82.21,117.36s13.68,19.2,26.22,16.8c13.43-2.57,13.04-18.03,13.04-18.03Z"/></svg>