<?xml version="1.0" encoding="UTF-8"?>
<svg id="Pantmærke" xmlns="http://www.w3.org/2000/svg" viewBox="0 0 55.1875 57.1929">
  <defs>
    <style>
      .cls-1 {
        fill: #fff;
      }
    </style>
  </defs>
  <g>
    <path class="cls-1" d="M45.653,38.3742h-5.7332c6.4717-3.6378,10.7804-10.1198,10.7804-17.5118C50.7003,9.4786,40.4836.2502,27.8808.2502S5.0612,9.4786,5.0612,20.8624c0,7.392,4.3087,13.874,10.7804,17.5118h-6.3072c-5.1277,0-9.2845,4.1568-9.2845,9.2845s4.1568,9.2845,9.2845,9.2845h36.1186c5.1277,0,9.2845-4.1568,9.2845-9.2845s-4.1568-9.2845-9.2845-9.2845Z"/>
    <path d="M45.6528,57.1929H9.5347c-5.2573,0-9.5347-4.2769-9.5347-9.5342s4.2773-9.5347,9.5347-9.5347h5.3882c-6.3501-3.896-10.1118-10.2861-10.1118-17.2617C4.811,9.3589,15.1602,0,27.8809,0s23.0693,9.3589,23.0693,20.8623c0,6.9756-3.7617,13.3657-10.1113,17.2617h4.814c5.2573,0,9.5347,4.2773,9.5347,9.5347s-4.2773,9.5342-9.5347,9.5342ZM9.5347,38.624c-4.9819,0-9.0347,4.0527-9.0347,9.0347s4.0527,9.0342,9.0347,9.0342h36.1182c4.9819,0,9.0347-4.0527,9.0347-9.0342s-4.0527-9.0347-9.0347-9.0347h-6.688l.8325-.4678c6.6704-3.7495,10.6528-10.2144,10.6528-17.2939C50.4502,9.6343,40.3257.5,27.8809.5S5.311,9.6343,5.311,20.8623c0,7.0791,3.9824,13.5444,10.6533,17.2939l.8325.4678h-7.2622Z"/>
  </g>
  <circle cx="9.5344" cy="47.6587" r="3.4039"/>
  <circle cx="18.5641" cy="47.6587" r="3.4039"/>
  <circle cx="27.5937" cy="47.6587" r="3.4039"/>
  <circle cx="36.6234" cy="47.6587" r="3.4039"/>
  <circle cx="45.653" cy="47.6587" r="3.4039"/>
  <path d="M38.9279,11.7598c-.6792-.4981-1.6339-.3513-2.132.328-.4982.6793-.3513,1.6338.328,2.132,3.0049,2.2036,3.9809,4.4255,3.2635,7.4296-.7668,3.2109-3.8899,5.8971-7.3238,6.5126l.3738-2.9239c.1573-1.2306-1.1117-2.146-2.2298-1.6083l-9.0368,4.3454c-1.3055.6277-1.3286,2.4784-.0393,3.1386l7.5908,3.8871c1.1268.577,2.4848-.1389,2.6453-1.3947l.2957-2.3125c4.9897-.4766,9.5676-4.2298,10.6914-8.9357,1.0053-4.2099-.4427-7.6766-4.4267-10.5982Z"/>
  <path d="M16.4578,29.676c.6792.4981,1.6339.3513,2.132-.328.4982-.6793.3513-1.6338-.328-2.132-3.0049-2.2036-3.9809-4.4255-3.2635-7.4296.7668-3.2109,3.8899-5.8971,7.3238-6.5126l-.3738,2.9239c-.1573,1.2306,1.1117,2.146,2.2298,1.6083l9.0368-4.3454c1.3055-.6277,1.3286-2.4784.0393-3.1386l-7.5908-3.8871c-1.1268-.577-2.4848.1389-2.6453,1.3947l-.2957,2.3125c-4.9897.4766-9.5676,4.2298-10.6914,8.9357-1.0053,4.2099.4427,7.6766,4.4267,10.5982Z"/>
  <g>
    <path d="M20.6982,22.7851l-.8519.1982v1.2999c0,.1859-.0438.337-.1316.4534s-.1984.1903-.332.2213c-.1399.0326-.2527.0113-.3383-.0638-.0857-.0751-.1284-.2045-.1284-.3883v-3.5394c0-.2046.047-.3617.1409-.4713s.2432-.1881.4479-.2357l1.1934-.2776c.3529-.0821.6243-.1181.8144-.108.1879.0085.3503.0574.4871.1467.1367.0893.2406.2134.3116.3723.071.1589.1065.3479.1065.5672,0,.4678-.1441.8557-.4322,1.164-.2882.3082-.7173.5286-1.2873.6613ZM20.4727,20.7327l-.6264.1457v1.4032l.6264-.1457c.2193-.051.4025-.1166.5497-.1968.1472-.0801.2594-.1814.3367-.3038.0772-.1224.1159-.2682.1159-.4373,0-.2025-.0595-.3537-.1785-.4533-.1336-.1046-.4083-.1086-.8238-.012Z"/>
    <path d="M24.7312,23.2312c-.2067.2089-.4067.376-.5998.5013-.1931.1253-.4098.2159-.6499.2718-.2192.051-.4119.0524-.5779.0044s-.2939-.1357-.3837-.2631c-.0898-.1274-.1347-.2777-.1347-.451,0-.2338.0741-.4505.2224-.65.1482-.1994.3518-.3575.6108-.4741.0543-.0251.189-.0847.4041-.1786.215-.0939.3993-.1769.5528-.2492.1535-.0722.32-.1553.4996-.2493-.0105-.2231-.0559-.378-.1362-.4647-.0804-.0867-.2469-.1007-.4996-.0419-.2172.0505-.3806.1188-.4902.2049-.1096.0861-.2036.1988-.2819.3381-.0783.1393-.1336.2321-.166.2782-.0324.0462-.1018.0816-.2083.1064-.0961.0224-.1791.0109-.249-.0345-.07-.0453-.1049-.116-.1049-.2121,0-.1503.0532-.3089.1597-.4757.1065-.1667.2725-.3223.498-.4667.2255-.1443.5063-.2556.8425-.3338.3759-.0874.6713-.1118.8864-.0731.215.0388.3669.1438.4557.3153.0887.1715.1331.4159.1331.7333,0,.2004-.0005.3708-.0016.5109-.0011.1402-.0026.2961-.0047.4678,0,.1608.0266.3222.0798.4841.0533.162.0799.268.0799.3181,0,.0877-.0413.1772-.1237.2684-.0825.0912-.1759.149-.2803.1733-.0877.0204-.1744-.0007-.26-.0633-.0856-.0625-.1765-.161-.2725-.2952ZM24.6748,22.0071c-.1253.0751-.3075.166-.5466.2728-.2391.1068-.4046.1829-.4964.2283-.0919.0454-.1796.1128-.2631.2022-.0836.0894-.1253.1967-.1253.322,0,.1295.049.2282.1472.2962.0981.068.2266.0835.3853.0466.1692-.0394.3252-.1127.4683-.2201.143-.1074.2479-.2273.3148-.3598.0772-.1474.1159-.3694.1159-.6659v-.1221Z"/>
    <path d="M26.8379,20.2197v.1033c.1503-.2333.3148-.4172.4933-.5517.1785-.1344.3837-.2286.6155-.2826.2255-.0525.427-.0503.6045.0066.1775.0569.3101.1649.3978.324.0564.0913.0929.1956.1096.3128.0167.1172.0251.2698.0251.4577v1.5911c0,.1712-.0392.3098-.1174.4157-.0783.1059-.1801.1735-.3054.2026-.1274.0296-.2308.0088-.3101-.0626-.0794-.0713-.119-.1905-.119-.3576v-1.4251c0-.2819-.0391-.4884-.1174-.6195-.0783-.1311-.2344-.1694-.4683-.115-.1524.0355-.2913.1132-.4166.2332-.1253.12-.2172.2661-.2756.4384-.0418.1371-.0626.38-.0626.7287v1.0712c0,.1734-.0403.3127-.1206.418-.0804.1053-.1843.1729-.3117.2025-.1232.0287-.2245.0073-.3038-.064-.0794-.0713-.119-.1905-.119-.3576v-2.4713c0-.1629.0355-.2927.1065-.3897.071-.0969.1681-.1597.2913-.1884.0752-.0175.143-.0155.2036.0059.0605.0214.1091.0634.1456.1258.0365.0625.0548.1449.0548.2472Z"/>
    <path d="M29.6618,19.165l.094-.0219v-.5137c0-.1378.0036-.2467.011-.3267.0073-.08.0276-.1521.0611-.2162.0334-.0662.0814-.1249.1441-.1761.0627-.0511.1326-.0856.2099-.1036.1085-.0252.2067-.0074.2944.0537.0584.0407.0955.0983.1112.173.0157.0746.0235.184.0235.3281v.5826l.3132-.0729c.1211-.0282.2135-.0209.2772.0217.0637.0426.0955.1088.0955.1986,0,.1149-.0454.2059-.1363.2729-.0908.0671-.2208.1203-.3899.1596l-.1597.0372v1.5723c0,.1337.0047.2354.0141.3053.0094.0698.0345.1225.0752.1579.0407.0355.107.0425.1989.0211.0501-.0117.1179-.0363.2036-.074.0856-.0376.1524-.0621.2005-.0733.0689-.016.131-.0028.1863.0396.0553.0425.083.1044.083.1858,0,.1378-.0752.2608-.2255.3688s-.3664.1949-.6484.2605c-.2673.0622-.4698.0644-.6076.0067-.1378-.0577-.2282-.1609-.2709-.3097-.0428-.1487-.0642-.3557-.0642-.6209v-1.6413l-.1128.0262c-.1232.0287-.2172.0213-.2819-.0221-.0647-.0433-.0971-.11-.0971-.1998,0-.0897.0339-.1712.1018-.2445.0678-.0732.1665-.1249.296-.155Z"/>
    <path d="M35.8454,20.5297l-.2193-.5253-1.8668.4343-.2192.6398c-.0857.2497-.1587.4217-.2193.5162-.0606.0944-.1597.1578-.2976.1898-.117.0272-.2203.0084-.3101-.0563-.0898-.0647-.1347-.1514-.1347-.2599,0-.0627.0104-.1298.0313-.2015.0208-.0717.0553-.1726.1033-.3028l1.1746-3.2551c.0334-.0934.0736-.2056.1206-.3366.047-.131.0971-.2423.1503-.3341.0532-.0917.1232-.1722.2098-.2415.0867-.0692.1937-.1187.321-.1483.1295-.0301.2375-.0307.3242-.0018.0866.029.1566.0758.2098.1407.0533.0649.0981.1375.1347.2177.0365.0803.083.1879.1394.3231l1.1996,2.684c.094.2036.141.3567.141.459,0,.1065-.0444.2145-.1331.3238-.0888.1094-.1957.1787-.321.2078-.0731.017-.1357.0185-.1879.0046-.0522-.014-.0961-.0392-.1316-.0759-.0355-.0366-.0736-.0967-.1143-.1801-.0407-.0834-.0757-.1572-.1049-.2215ZM34.0037,19.6834l1.3719-.3192-.6922-1.7339-.6797,2.0531Z"/>
  </g>
</svg>