<?xml version="1.0" encoding="UTF-8"?>
<svg id="Stregkode" xmlns="http://www.w3.org/2000/svg" viewBox="0 0 70.8661 113.8538">
  <defs>
    <style>
      .cls-1 {
        fill: #fff;
      }
    </style>
  </defs>
  <rect class="cls-1" x="-17.9201" y="25.0676" width="106.7064" height="70.8661" transform="translate(-25.0676 95.9337) rotate(-90)"/>
  <rect x="0" y="102.6751" width="66.0757" height="1.0163"/>
  <rect x="0" y="100.6426" width="66.0757" height="1.0163"/>
  <rect x="0" y="96.5776" width="60.9944" height="3.0488"/>
  <rect x="0" y="93.5289" width="60.9944" height="2.0325"/>
  <rect x="0" y="90.4801" width="60.9944" height="2.0325"/>
  <rect x="0" y="86.4151" width="60.9944" height="2.0325"/>
  <rect x="0" y="81.3339" width="60.9944" height="3.0488"/>
  <rect x="0" y="79.3014" width="60.9944" height="1.0163"/>
  <rect x="0" y="74.2201" width="60.9944" height="4.065"/>
  <rect x="0" y="72.1876" width="60.9944" height="1.0163"/>
  <rect x="0" y="69.1389" width="60.9944" height="2.0325"/>
  <rect x="0" y="65.0738" width="60.9944" height="1.0163"/>
  <rect x="0" y="61.0088" width="60.9944" height="3.0488"/>
  <rect x="0" y="57.9601" width="60.9944" height="1.0163"/>
  <rect x="0" y="55.9276" width="66.0757" height="1.0163"/>
  <rect x="0" y="53.8951" width="66.0757" height="1.0163"/>
  <rect x="0" y="49.8301" width="60.9944" height="3.0488"/>
  <rect x="0" y="46.7813" width="60.9944" height="1.0163"/>
  <rect x="0" y="44.7488" width="60.9944" height="1.0163"/>
  <rect x="0" y="39.6676" width="60.9944" height="3.0488"/>
  <rect x="0" y="37.6351" width="60.9944" height="1.0163"/>
  <rect x="0" y="32.5538" width="60.9944" height="1.0163"/>
  <rect x="0" y="30.5213" width="60.9944" height="1.0163"/>
  <rect x="0" y="26.4563" width="60.9944" height="3.0488"/>
  <rect x="0" y="23.4075" width="60.9944" height="1.0163"/>
  <rect x="0" y="19.3425" width="60.9944" height="3.0488"/>
  <rect x="0" y="16.2938" width="60.9944" height="1.0163"/>
  <rect x="0" y="13.245" width="60.9944" height="1.0163"/>
  <rect x="0" y="9.18" width="66.0757" height="1.0163"/>
  <rect x="0" y="7.1475" width="66.0757" height="1.0163"/>
  <path d="M64.3727,108.927v-.2193c0-1.3725.5945-2.5987,2.1317-2.5987,2.2508,0,2.4612,2.6076,2.4612,3.4308v.3111h-.8604v-.5399c0-1.0703-.3474-2.2598-1.6097-2.2598-1.18,0-1.2991,1.1254-1.2624,1.6653l.0824,1.1344-3.0924-.201v-3.3579h.8594v2.5252l1.2902.1097Z"/>
  <path d="M63.0825,97.4579h-.8594v-4.3821h.1092c.3851,0,.6778.0089,1.0252.1737.2838.1375.7046.4848.9517.6863,1.1433.9696,1.9392,1.6286,3.5033,1.6286h1.0708v.9423h-1.0708c-1.4728,0-2.625-.6773-3.7236-1.6102l-.3841-.3295c-.1826-.1647-.3841-.3384-.6223-.3657v3.2567Z"/>
  <path d="M64.7478,90.5159h-1.1711l-1.3537-1.6192v-1.0158h6.6602v.9423h-5.5993l1.4638,1.6926Z"/>
  <path d="M66.559,79.9966h.8604v.8143h1.4638v.9423h-1.4638v2.5252h-.9885l-4.2079-1.9581v-.9696l4.3359,2.0127v-1.6102h-1.3715v-.9423h1.3715v-.8143Z"/>
  <path d="M63.156,73.6772l1.6742,1.6742c.0546-1.1438.7959-1.9397,1.9759-1.9397,1.4827,0,2.1595,1.2351,2.1595,2.5709,0,.6128-.1558,1.1621-.393,1.7199h-.9428c.3384-.5215.4754-1.0976.4754-1.7015,0-.8416-.3652-1.6469-1.3259-1.6469-.8882,0-1.2266.6952-1.2266,1.5006v.7319h-.7225l-1.7477-1.711v2.8269h-.8594v-4.0253h.9329Z"/>
  <path d="M64.3727,69.9189v-.2198c0-1.372.5945-2.5982,2.1317-2.5982,2.2508,0,2.4612,2.6076,2.4612,3.4308v.3111h-.8604v-.5399c0-1.0703-.3474-2.2598-1.6097-2.2598-1.18,0-1.2991,1.1254-1.2624,1.6653l.0824,1.1344-3.0924-.201v-3.3579h.8594v2.5252l1.2902.1097Z"/>
  <path d="M64.3727,63.3336v-.2193c0-1.3725.5945-2.5987,2.1317-2.5987,2.2508,0,2.4612,2.6076,2.4612,3.4308v.3111h-.8604v-.5399c0-1.0703-.3474-2.2598-1.6097-2.2598-1.18,0-1.2991,1.1254-1.2624,1.6653l.0824,1.1344-3.0924-.201v-3.3579h.8594v2.5252l1.2902.1097Z"/>
  <path d="M63.1103,46.1224c.7225-.2471,1.574-.2928,2.3332-.2928.8138,0,2.5337.0457,3.1192.659.3295.329.4029,1.043.4029,1.5641,0,.531-.0734,1.2356-.4029,1.574-.5855.6039-2.3054.6495-3.1192.6495-.7592,0-1.6107-.0457-2.3332-.2928-.9061-.3111-1.0063-1.0341-1.0063-1.9308,0-.8872.1002-1.6192,1.0063-1.9303ZM63.6959,49.2331c.5032.0913,1.3269.1007,1.8479.1007.4853,0,1.967-.0184,2.3153-.2838.2372-.1737.2461-.6863.2461-.9974,0-.3106-.0089-.8232-.2461-.9969-.3483-.256-1.83-.2838-2.3153-.2838-.521,0-1.3447.0184-1.8479.1007-.7046.1191-.7324.4486-.7324,1.18,0,.7324.0278,1.0614.7324,1.1805Z"/>
  <path d="M64.3727,42.4191v-.2198c0-1.372.5945-2.5982,2.1317-2.5982,2.2508,0,2.4612,2.6076,2.4612,3.4308v.3111h-.8604v-.5399c0-1.0703-.3474-2.2598-1.6097-2.2598-1.18,0-1.2991,1.1254-1.2624,1.6653l.0824,1.1344-3.0924-.201v-3.3579h.8594v2.5252l1.2902.1097Z"/>
  <path d="M63.156,33.0069l1.6742,1.6742c.0546-1.1438.7959-1.9397,1.9759-1.9397,1.4827,0,2.1595,1.2351,2.1595,2.5709,0,.6128-.1558,1.1621-.393,1.7199h-.9428c.3384-.5215.4754-1.0976.4754-1.7015,0-.8416-.3652-1.6469-1.3259-1.6469-.8882,0-1.2266.6952-1.2266,1.5006v.7319h-.7225l-1.7477-1.711v2.8269h-.8594v-4.0253h.9329Z"/>
  <path d="M66.559,26.1566h.8604v.8143h1.4638v.9423h-1.4638v2.5252h-.9885l-4.2079-1.9581v-.9696l4.3359,2.0127v-1.6102h-1.3715v-.9423h1.3715v-.8143Z"/>
  <path d="M66.559,19.5713h.8604v.8143h1.4638v.9423h-1.4638v2.5252h-.9885l-4.2079-1.9581v-.9696l4.3359,2.0127v-1.6102h-1.3715v-.9423h1.3715v-.8143Z"/>
  <path d="M63.5768,13.1597c.7691,0,1.2078.5582,1.5829,1.1438.4029-.8327.9696-1.3998,1.9581-1.3998,1.3537,0,1.8479,1.0158,1.8479,2.223,0,1.2172-.4942,2.2235-1.8479,2.2235-.9885,0-1.5551-.5672-1.9581-1.3909-.3751.5766-.8138,1.1348-1.5829,1.1348-1.0609,0-1.4728-1.0341-1.4728-1.9675,0-.9329.4119-1.967,1.4728-1.967ZM67.0354,13.846c-.7225,0-1.052.6312-1.4093,1.2807.3573.659.6868,1.2812,1.4093,1.2812.7592,0,1.0698-.6495,1.0698-1.2812,0-.6312-.3106-1.2807-1.0698-1.2807ZM63.6591,16.1519c.522,0,.8783-.6133,1.043-1.0252-.1647-.4114-.521-1.0242-1.043-1.0242-.5577,0-.6957.5761-.6957,1.0242,0,.4486.1379,1.0252.6957,1.0252Z"/>
  <path d="M65.6801,0l3.3664,5.1753h-1.3281l-2.1984-3.5838-2.1984,3.5838h-1.3054l3.3779-5.1753h.2861Z"/>
</svg>